<?xml version="1.0" standalone="no"?>
<!DOCTYPE svg PUBLIC "-//W3C//DTD SVG 20010904//EN"
 "http://www.w3.org/TR/2001/REC-SVG-20010904/DTD/svg10.dtd">
<svg version="1.0" xmlns="http://www.w3.org/2000/svg"
 width="369.000000pt" height="418.000000pt" viewBox="0 0 369.000000 418.000000"
 preserveAspectRatio="xMidYMid meet">
<metadata>
Created by potrace 1.16, written by Peter Selinger 2001-2019
</metadata>
<g transform="translate(0.000000,418.000000) scale(0.100000,-0.100000)"
fill="#db8db4" stroke="none" stroke-opacity="0">
<path d="M1279 4103 c-249 -260 -511 -668 -630 -984 -120 -317 -147 -593 -84
-834 22 -82 83 -219 131 -290 104 -158 279 -299 457 -370 37 -15 67 -29 67
-31 0 -15 -64 -114 -74 -114 -24 0 -188 59 -259 94 -73 35 -188 108 -262 166
-22 18 -11 4 25 -30 110 -105 246 -191 395 -250 44 -18 81 -33 83 -35 2 -2
-21 -43 -52 -92 -110 -177 -263 -329 -466 -464 -146 -98 -278 -160 -520 -247
-24 -8 121 -29 295 -42 161 -13 353 -8 510 11 342 42 653 171 875 361 36 31
66 55 67 54 1 -1 -9 -33 -23 -71 -31 -84 -64 -220 -63 -255 0 -14 9 4 18 40
35 128 108 296 177 410 l28 44 -75 -61 c-274 -224 -582 -355 -921 -392 -112
-13 -268 -14 -267 -3 0 4 39 32 86 62 173 111 348 298 467 497 l58 98 247 0
c216 1 258 3 348 23 324 70 517 204 630 434 65 132 78 197 78 383 -1 149 -3
166 -28 240 -58 165 -152 287 -318 409 -53 39 -161 119 -240 177 -189 140
-415 341 -493 440 -130 164 -189 329 -214 592 l-7 78 -46 -48z m-29 -709 c86
-108 392 -384 425 -384 4 0 27 -14 52 -31 25 -18 125 -77 222 -131 211 -120
288 -175 379 -273 114 -122 179 -273 189 -440 19 -323 -191 -569 -559 -654
-206 -49 -598 -67 -598 -28 0 6 9 30 21 54 l21 43 137 -6 c75 -4 168 -3 206 2
l70 8 -105 7 c-95 7 -246 32 -257 43 -16 16 84 117 167 171 36 23 85 50 110
60 72 28 217 54 315 56 83 1 86 2 45 10 -84 17 -318 16 -397 -3 -143 -33 -262
-94 -364 -187 l-59 -53 -75 42 c-164 94 -276 212 -356 375 -79 163 -93 228
-93 440 0 168 2 186 28 270 51 167 120 305 220 439 42 55 196 224 206 225 3 1
25 -24 50 -55z"/>
<path d="M3425 2009 c-86 -13 -149 -33 -240 -77 -103 -50 -185 -113 -278 -211
-56 -61 -84 -82 -115 -90 -112 -31 -126 -172 -22 -226 16 -8 52 -15 80 -15 88
0 136 44 134 121 -2 51 -24 83 -73 105 -22 11 -41 22 -41 25 0 14 138 134 199
174 87 55 148 78 308 116 73 17 143 39 155 49 l23 18 -28 11 c-16 6 -31 10
-35 10 -4 -1 -34 -5 -67 -10z"/>
<path d="M2519 1475 c-123 -31 -313 -215 -448 -432 -69 -111 -94 -165 -136
-284 -69 -197 -94 -460 -60 -608 17 -72 29 -91 55 -91 33 0 60 35 100 128 63
147 114 336 170 639 16 84 36 167 45 186 23 50 62 82 135 112 198 81 280 160
280 268 0 73 -54 105 -141 82z"/>
</g>
</svg>
