<?xml version="1.0" encoding="utf-8"?>

<!DOCTYPE svg PUBLIC "-//W3C//DTD SVG 1.1//EN" "http://www.w3.org/Graphics/SVG/1.1/DTD/svg11.dtd">
<svg version="1.1" id="Layer_1" xmlns="http://www.w3.org/2000/svg" xmlns:xlink="http://www.w3.org/1999/xlink" x="0px" y="0px"
	 viewBox="0 0 2480.393 1642.067" xml:space="preserve" fill="#e08bb6">
<g>
	<path d="M1240.181,1335.265c-17.355,15.969-37.142,215.974-277.169,275.401c-89.973,22.276-174.08,6.747-254.336-36.1
		c-286.138-152.763-476.87-504.326-214.997-604.473c39.123-14.962,80.166-22.145,121.066-29.925
		c4.992-0.95,10.243-1.329,15.32-4.948c-30.083-22.353-366.946,3.429-545.476-323.107C26.362,505.614,4.148,235.454,82.613,114.252
		c21.796-33.667,54.489-50.687,92.269-60.606c401.058-105.292,845.902,72.277,1000.86,305.181
		c33.932,51.001,49.046,90.553,62.867,137.796c0.197,0.673,0.927,1.191,1.51,1.903c3.05-1.522,3.095-4.655,3.753-7.145
		c95.107-360.189,672.587-548.635,1072.259-434.574c159.416,45.495,147.721,330.51,105.197,491.029
		c-27.635,104.316-136.259,246.944-300.729,320.054c-47.551,21.138-97.928,33.326-148.66,44.037
		c-107.86,22.774-119.889,15.635-120.21,23.394c-0.258,6.247,60.51,11.114,114.79,28.065
		c372.573,116.349-58.877,651.496-356.807,657.575c-55.407,1.13-108.479-11.067-159.456-32.663
		c-146.366-62.005-182.316-182.417-205.582-245.672C1243.717,1340.018,1243.04,1337.14,1240.181,1335.265z"/>
</g>
</svg>
